<svg width="18" height="13" viewBox="0 0 18 13" fill="none" xmlns="http://www.w3.org/2000/svg">
<path d="M1.20374 12.5H12.2037C12.7537 12.5 13.2037 12.05 13.2037 11.5C13.2037 10.95 12.7537 10.5 12.2037 10.5H1.20374C0.653735 10.5 0.203735 10.95 0.203735 11.5C0.203735 12.05 0.653735 12.5 1.20374 12.5ZM1.20374 7.5H9.20374C9.75374 7.5 10.2037 7.05 10.2037 6.5C10.2037 5.95 9.75374 5.5 9.20374 5.5H1.20374C0.653735 5.5 0.203735 5.95 0.203735 6.5C0.203735 7.05 0.653735 7.5 1.20374 7.5ZM0.203735 1.5C0.203735 2.05 0.653735 2.5 1.20374 2.5H12.2037C12.7537 2.5 13.2037 2.05 13.2037 1.5C13.2037 0.95 12.7537 0.5 12.2037 0.5H1.20374C0.653735 0.5 0.203735 0.95 0.203735 1.5ZM17.5037 9.38L14.6237 6.5L17.5037 3.62C17.8937 3.23 17.8937 2.6 17.5037 2.21C17.1137 1.82 16.4837 1.82 16.0937 2.21L12.5037 5.8C12.1137 6.19 12.1137 6.82 12.5037 7.21L16.0937 10.8C16.4837 11.19 17.1137 11.19 17.5037 10.8C17.8837 10.41 17.8937 9.77 17.5037 9.38Z" fill="#B8BFCC" style="fill:#B8BFCC;fill:color(display-p3 0.7200 0.7507 0.8000);fill-opacity:1;"/>
</svg>
